<svg xmlns="http://www.w3.org/2000/svg" viewBox="0 0 1280 720" preserveAspectRatio="xMidYMid slice" role="img" aria-hidden="true"><defs><linearGradient id="c" x1="0" y1="0" x2="0" y2="1"><stop offset="0" stop-color="#fde9c8"/><stop offset="1" stop-color="#cfe9ee"/></linearGradient><filter id="gr-marcos" x="0" y="0" width="100%" height="100%"><feTurbulence type="fractalNoise" baseFrequency=".9" numOctaves="2" seed="7" result="n"/><feColorMatrix type="saturate" values="0" in="n" result="g"/><feComponentTransfer in="g"><feFuncA type="table" tableValues="0 .10"/></feComponentTransfer></filter><filter id="sh-marcos" x="-50%" y="-50%" width="200%" height="200%"><feGaussianBlur stdDeviation="6"/></filter></defs><rect width="1280" height="720" fill="url(#c)"/><circle cx="980" cy="200" r="90" fill="#fbe8a6"/><rect y="430" width="1280" height="90" fill="#7fb9c8"/><path d="M0 470c80-14 160 14 240 0s160-14 240 0 160 14 240 0 160-14 240 0 160 14 300 0" fill="none" stroke="#ffffff" stroke-width="5" opacity=".7"/><path d="M0 520h1280V720H0Z" fill="#e8d3a6"/><path d="M360 520 470 500h160l60 20H380Z" fill="#c4604a"/><path d="M500 500V400l80 100z" fill="#f6ecd2"/><g data-mejora="1" aria-hidden="true"><defs><linearGradient id="nb-marcos" x1="0" y1="0" x2="0" y2="1"><stop offset="0" stop-color="#ffffff" stop-opacity="0"/><stop offset="1" stop-color="#ffffff" stop-opacity=".14"/></linearGradient><radialGradient id="vi-marcos" cx="50%" cy="50%" r="75%"><stop offset=".6" stop-color="#000000" stop-opacity="0"/><stop offset="1" stop-color="#000000" stop-opacity=".12"/></radialGradient></defs><polygon points="180,0 300,0 620,720 430,720" fill="#fff6d6" opacity=".10"/><polygon points="520,0 610,0 900,720 780,720" fill="#fff6d6" opacity=".07"/><rect x="0" y="420" width="1280" height="300" fill="url(#nb-marcos)"/><rect width="1280" height="720" fill="url(#vi-marcos)"/></g><g data-mejora="2" aria-hidden="true"><rect width="1280" height="720" fill="#c9893f" opacity=".05"/><rect width="1280" height="720" filter="url(#gr-marcos)"/></g></svg>